<svg width="222" height="222" viewBox="0 0 222 222" fill="none" xmlns="http://www.w3.org/2000/svg">
<g clip-path="url(#clip0_406_1017)">
<rect width="222" height="222" rx="17" fill="white"/>
<rect width="222" height="222" rx="16" fill="#FF9C38"/>
<path d="M49.8899 24.5455V58H43.7805L29.2259 36.9439H28.9808V58H21.9077V24.5455H28.1151L42.5554 45.5852H42.8494V24.5455H49.8899ZM89.349 24.5455V58H82.2758V24.5455H89.349ZM149.693 24.5455V58H143.583L129.029 36.9439H128.784V58H121.71V24.5455H127.918L142.358 45.5852H142.652V24.5455H149.693ZM182.079 58V24.5455H204.621V30.3771H189.152V38.3487H203.461V44.1804H189.152V52.1683H204.687V58H182.079ZM20.6335 99.3771V93.5455H48.1094V99.3771H37.8672V127H30.8757V99.3771H20.6335ZM108.392 110.273C108.392 113.921 107.7 117.025 106.317 119.584C104.945 122.143 103.072 124.098 100.698 125.448C98.3347 126.788 95.6775 127.457 92.7263 127.457C89.7533 127.457 87.0852 126.782 84.722 125.432C82.3589 124.081 80.4912 122.127 79.1191 119.567C77.7469 117.008 77.0608 113.91 77.0608 110.273C77.0608 106.625 77.7469 103.521 79.1191 100.962C80.4912 98.4025 82.3589 96.4531 84.722 95.1136C87.0852 93.7633 89.7533 93.0881 92.7263 93.0881C95.6775 93.0881 98.3347 93.7633 100.698 95.1136C103.072 96.4531 104.945 98.4025 106.317 100.962C107.7 103.521 108.392 106.625 108.392 110.273ZM101.221 110.273C101.221 107.91 100.867 105.917 100.159 104.294C99.4619 102.671 98.4763 101.441 97.2022 100.602C95.928 99.7637 94.4361 99.3445 92.7263 99.3445C91.0166 99.3445 89.5246 99.7637 88.2505 100.602C86.9763 101.441 85.9853 102.671 85.2774 104.294C84.5805 105.917 84.232 107.91 84.232 110.273C84.232 112.636 84.5805 114.629 85.2774 116.251C85.9853 117.874 86.9763 119.105 88.2505 119.943C89.5246 120.782 91.0166 121.201 92.7263 121.201C94.4361 121.201 95.928 120.782 97.2022 119.943C98.4763 119.105 99.4619 117.874 100.159 116.251C100.867 114.629 101.221 112.636 101.221 110.273ZM21.9077 196V162.545H44.0582V168.377H28.9808V176.349H42.5881V182.18H28.9808V196H21.9077ZM82.431 162.545V196H75.3579V162.545H82.431ZM120.836 162.545L128.922 187.963H129.233L137.335 162.545H145.176L133.643 196H124.528L112.979 162.545H120.836ZM175.745 196V162.545H198.287V168.377H182.818V176.349H197.127V182.18H182.818V190.168H198.353V196H175.745Z" fill="white"/>
</g>
<defs>
<clipPath id="clip0_406_1017">
<rect width="222" height="222" rx="17" fill="white"/>
</clipPath>
</defs>
</svg>
