<svg width="294" height="294" viewBox="0 0 294 294" fill="none" xmlns="http://www.w3.org/2000/svg">
<g clip-path="url(#clip0_948_354)">
<rect width="294" height="294" fill="white"/>
<rect width="294" height="294" fill="white"/>
<circle cx="41.5" cy="77.5" r="91.5" fill="#FF5454"/>
<rect x="47" y="84.9566" width="323.429" height="154.229" rx="77.1147" transform="rotate(-37.5146 47 84.9566)" fill="#FF44E1"/>
<path d="M-56.1532 210.215C-43.3267 167.935 1.34602 144.059 43.626 156.885L121.684 180.566C163.964 193.392 187.841 238.065 175.014 280.345L155.702 344.006C142.476 387.602 86.8039 400.197 56.1007 366.538V366.538C41.8541 350.92 20.3136 344.162 -0.301354 348.844L-1.96983 349.223C-48.1146 359.702 -88.3838 316.457 -74.6466 271.175L-56.1532 210.215Z" fill="#FF9344"/>
<ellipse cx="242.5" cy="237.5" rx="104.5" ry="92.5" fill="#1EFF78"/>
<ellipse cx="199.5" cy="134.5" rx="119.5" ry="80.5" fill="#FF027B"/>
<path d="M141.889 100C141.889 166.826 218.571 221 151.48 221C84.3884 221 30 166.826 30 100C30 33.1735 84.3884 -21 151.48 -21C218.571 -21 141.889 33.1735 141.889 100Z" fill="#79D7FF"/>
<g filter="url(#filter0_b_948_354)">
<rect width="294" height="294" fill="white" fill-opacity="0.65"/>
</g>
<mask id="path-9-inside-1_948_354" fill="white">
<path fill-rule="evenodd" clip-rule="evenodd" d="M202.75 124.922C202.75 126.512 204.517 127.466 205.847 126.594L277.45 79.6348C278.654 78.8451 278.654 77.0798 277.45 76.29L205.847 29.3309C204.517 28.4586 202.75 29.4128 202.75 31.0033V40.4624C202.75 41.567 201.855 42.4624 200.75 42.4624L21 42.4624C19.8954 42.4624 19 43.3578 19 44.4624L19 111.462C19 112.567 19.8954 113.462 21 113.462H98C99.1046 113.462 100 114.358 100 115.462V261.462C100 262.567 100.895 263.462 102 263.462H169C170.105 263.462 171 262.567 171 261.462V115.462C171 114.358 171.895 113.462 173 113.462H200.75C201.855 113.462 202.75 114.358 202.75 115.462V124.922Z"/>
</mask>
<path fill-rule="evenodd" clip-rule="evenodd" d="M202.75 124.922C202.75 126.512 204.517 127.466 205.847 126.594L277.45 79.6348C278.654 78.8451 278.654 77.0798 277.45 76.29L205.847 29.3309C204.517 28.4586 202.75 29.4128 202.75 31.0033V40.4624C202.75 41.567 201.855 42.4624 200.75 42.4624L21 42.4624C19.8954 42.4624 19 43.3578 19 44.4624L19 111.462C19 112.567 19.8954 113.462 21 113.462H98C99.1046 113.462 100 114.358 100 115.462V261.462C100 262.567 100.895 263.462 102 263.462H169C170.105 263.462 171 262.567 171 261.462V115.462C171 114.358 171.895 113.462 173 113.462H200.75C201.855 113.462 202.75 114.358 202.75 115.462V124.922Z" fill="#FFFCF5"/>
<path d="M205.847 29.3309L206.395 28.4947L205.847 29.3309ZM205.847 126.594L205.298 125.758L205.847 126.594ZM277.45 79.6348L277.998 80.4711L277.45 79.6348ZM277.45 76.29L276.901 77.1262L277.45 76.29ZM276.901 78.7986L205.298 125.758L206.395 127.43L277.998 80.4711L276.901 78.7986ZM205.298 30.1671L276.901 77.1262L277.998 75.4538L206.395 28.4947L205.298 30.1671ZM203.75 40.4624V31.0033H201.75V40.4624H203.75ZM200.75 41.4624L21 41.4624L21 43.4624L200.75 43.4624L200.75 41.4624ZM18 44.4624L18 111.462L20 111.462L20 44.4624L18 44.4624ZM21 114.462H98V112.462H21V114.462ZM99 115.462V261.462H101V115.462H99ZM102 264.462H169V262.462H102V264.462ZM172 261.462V115.462H170V261.462H172ZM173 114.462H200.75V112.462H173V114.462ZM203.75 124.922V115.462H201.75V124.922H203.75ZM200.75 114.462C201.302 114.462 201.75 114.91 201.75 115.462H203.75C203.75 113.806 202.407 112.462 200.75 112.462V114.462ZM172 115.462C172 114.91 172.448 114.462 173 114.462V112.462C171.343 112.462 170 113.806 170 115.462H172ZM169 264.462C170.657 264.462 172 263.119 172 261.462H170C170 262.015 169.552 262.462 169 262.462V264.462ZM99 261.462C99 263.119 100.343 264.462 102 264.462V262.462C101.448 262.462 101 262.015 101 261.462H99ZM98 114.462C98.5523 114.462 99 114.91 99 115.462H101C101 113.806 99.6569 112.462 98 112.462V114.462ZM18 111.462C18 113.119 19.3431 114.462 21 114.462V112.462C20.4477 112.462 20 112.015 20 111.462L18 111.462ZM21 41.4624C19.3431 41.4624 18 42.8056 18 44.4624L20 44.4624C20 43.9101 20.4477 43.4624 21 43.4624L21 41.4624ZM201.75 40.4624C201.75 41.0147 201.302 41.4624 200.75 41.4624L200.75 43.4624C202.407 43.4624 203.75 42.1193 203.75 40.4624H201.75ZM206.395 28.4947C204.4 27.1863 201.75 28.6175 201.75 31.0033H203.75C203.75 30.208 204.633 29.731 205.298 30.1671L206.395 28.4947ZM205.298 125.758C204.633 126.194 203.75 125.717 203.75 124.922H201.75C201.75 127.307 204.4 128.739 206.395 127.43L205.298 125.758ZM277.998 80.4711C279.805 79.2864 279.805 76.6385 277.998 75.4538L276.901 77.1262C277.504 77.5211 277.504 78.4037 276.901 78.7986L277.998 80.4711Z" fill="#0A0044" mask="url(#path-9-inside-1_948_354)"/>
</g>
<defs>
<filter id="filter0_b_948_354" x="-19" y="-19" width="332" height="332" filterUnits="userSpaceOnUse" color-interpolation-filters="sRGB">
<feFlood flood-opacity="0" result="BackgroundImageFix"/>
<feGaussianBlur in="BackgroundImageFix" stdDeviation="9.5"/>
<feComposite in2="SourceAlpha" operator="in" result="effect1_backgroundBlur_948_354"/>
<feBlend mode="normal" in="SourceGraphic" in2="effect1_backgroundBlur_948_354" result="shape"/>
</filter>
<clipPath id="clip0_948_354">
<rect width="294" height="294" fill="white"/>
</clipPath>
</defs>
</svg>
